<?xml version="1.0" encoding="iso-8859-1"?>
<!-- Generator: Adobe Illustrator 19.1.0, SVG Export Plug-In . SVG Version: 6.00 Build 0)  -->
<svg version="1.1" id="Layer_1" xmlns="http://www.w3.org/2000/svg" xmlns:xlink="http://www.w3.org/1999/xlink" x="0px" y="0px"
	 viewBox="0 0 173.364 161.531" style="enable-background:new 0 0 173.364 161.531;" xml:space="preserve">
<g>
	<g>
		<path style="fill:#DB095F;" d="M9.035,107.439v6.097H4.786V92.598h7.698c4.927,0,7.451,2.402,7.451,7.267
			s-2.525,7.575-7.451,7.575H9.035z M12.452,103.805c2.125,0,3.172-1.293,3.172-3.941c0-2.617-1.047-3.633-3.172-3.633H9.035v7.575
			H12.452z"/>
		<path style="fill:#DB095F;" d="M45.796,110.21c2.494,0,3.726-1.201,3.726-3.664V92.598h4.249v13.856
			c0,5.234-2.741,7.451-7.975,7.451c-5.235,0-7.975-2.217-7.975-7.451V92.598h4.249v13.948
			C42.07,109.04,43.302,110.21,45.796,110.21z"/>
		<path style="fill:#DB095F;" d="M85.791,96.416c0,0-4.341-0.493-6.128-0.493c-2.278,0-3.356,0.831-3.356,2.217
			c0,1.324,0.832,1.786,4.341,2.894c4.526,1.447,5.912,2.71,5.912,6.189c0,4.557-3.11,6.682-7.236,6.682
			c-2.864,0-6.989-0.955-6.989-0.955l0.431-3.295c0,0,4.126,0.554,6.312,0.554c2.279,0,3.264-1.078,3.264-2.71
			c0-1.293-0.739-1.878-3.756-2.74c-4.711-1.355-6.497-2.956-6.497-6.312c0-4.342,2.894-6.22,7.143-6.22
			c2.802,0,6.897,0.831,6.897,0.831L85.791,96.416z"/>
		<path style="fill:#DB095F;" d="M117.102,104.852h-7.79v8.683h-4.249V92.598h4.249v8.56h7.79v-8.56h4.249v20.938h-4.249V104.852z"
			/>
	</g>
	<path style="fill:#4C4C4C;" d="M102.956,155.531c-0.73,0-1.446-0.289-1.977-0.831l-17.257-17.63h-61.62
		c-9.985,0-18.108-8.123-18.108-18.108h5.53c0,6.935,5.642,12.578,12.578,12.578h62.783c0.744,0,1.456,0.299,1.976,0.831
		l13.329,13.617v-11.682c0-1.527,1.238-2.765,2.765-2.765h17.04c6.935,0,12.578-5.642,12.578-12.578V57.018
		c0-6.935-5.642-12.578-12.578-12.578H22.102c-6.935,0-12.578,5.642-12.578,12.578h-5.53c0-9.985,8.123-18.108,18.108-18.108h97.893
		c9.985,0,18.108,8.123,18.108,18.108v61.944c0,9.985-8.123,18.108-18.108,18.108H105.72v15.695c0,1.124-0.68,2.136-1.721,2.56
		C103.661,155.464,103.307,155.531,102.956,155.531z"/>
	<g>
		<g>
			<polygon points="3.818,64.169 11.328,64.169 13.706,76.81 15.756,64.169 22.617,64.169 25.11,76.81 27.108,64.169 34.314,64.169 
				29.386,84.675 21.528,84.675 19.166,71.966 17.05,84.675 8.736,84.675 			"/>
			<polygon points="59.954,76.873 51.223,76.873 51.223,79.305 61.049,79.305 61.049,84.675 44.251,84.675 44.251,64.169 
				60.586,64.169 60.586,69.49 51.21,69.49 51.21,71.522 59.954,71.522 			"/>
			<g>
				<path d="M90.854,70.849c-0.842-3.652-3.241-6.094-7.077-6.361C79.691,64.203,71,64.169,71,64.169v20.506
					c0,0,8.625-0.006,12.726-0.361c3.317-0.287,5.582-2.392,6.642-5.515C91.255,76.186,91.471,73.523,90.854,70.849z M83.719,76.522
					c-0.378,1.438-0.662,2.201-2.134,2.335C80.874,78.922,80,78.868,80,78.868v-9.067c0,0,1.499,0.088,2.51,0.272
					c1.063,0.193,1.325,1.004,1.565,2.013C84.427,73.563,84.105,75.055,83.719,76.522z"/>
			</g>
		</g>
		<path d="M112.375,63.568c-7.604,0-10.898,4.823-10.898,10.774c0,5.95,3.404,10.774,10.898,10.774s10.898-4.823,10.898-10.774
			C123.274,68.391,119.979,63.568,112.375,63.568z M112.335,79.373c-2.55,0-3.708-2.217-3.708-4.951s1.121-4.951,3.708-4.951
			c2.588,0,3.708,2.217,3.708,4.951S114.885,79.373,112.335,79.373z"/>
	</g>
	<g>
		<path style="fill:#DB095F;" d="M121,33.652c-1.527,0-3-1.238-3-2.765V8.765C118,7.238,119.473,6,121,6s3,1.238,3,2.765v22.122
			C124,32.414,122.527,33.652,121,33.652z"/>
		<path style="fill:#DB095F;" d="M138.737,41.4c-0.708,0-1.415-0.27-1.955-0.81c-1.08-1.08-1.08-2.831,0-3.911l17.279-17.279
			c1.08-1.08,2.831-1.08,3.911,0c1.08,1.08,1.08,2.831,0,3.911L140.693,40.59C140.153,41.13,139.445,41.4,138.737,41.4z"/>
		<path style="fill:#DB095F;" d="M166.781,59h-20.586c-1.527,0-2.765-1.473-2.765-3s1.238-3,2.765-3h20.586
			c1.527,0,2.765,1.473,2.765,3S168.308,59,166.781,59z"/>
		<path style="fill:#DB095F;" d="M131.178,35.909c-0.376,0-0.757-0.077-1.122-0.239c-1.395-0.621-2.023-2.255-1.402-3.651
			l4.158-9.347c0.62-1.396,2.255-2.023,3.65-1.403c1.395,0.621,2.023,2.255,1.402,3.651l-4.158,9.347
			C133.247,35.297,132.237,35.909,131.178,35.909z"/>
		<path style="fill:#DB095F;" d="M144.715,50.132c-1.117,0-2.169-0.682-2.587-1.789c-0.54-1.429,0.181-3.024,1.609-3.564
			l9.572-3.617c1.43-0.54,3.024,0.181,3.564,1.609s-0.181,3.024-1.609,3.564l-9.572,3.617
			C145.37,50.075,145.039,50.132,144.715,50.132z"/>
	</g>
</g>
</svg>
